<?xml version="1.0" encoding="UTF-8" standalone="no"?>
<!DOCTYPE svg PUBLIC "-//W3C//DTD SVG 1.1//EN"
 "http://www.w3.org/Graphics/SVG/1.1/DTD/svg11.dtd">
<!-- Generated by graphviz version 2.40.1 (20161225.0304)
 -->
<!-- Title: dependencies Pages: 1 -->
<svg width="524pt" height="284pt"
 viewBox="0.00 0.00 524.00 284.00" xmlns="http://www.w3.org/2000/svg" xmlns:xlink="http://www.w3.org/1999/xlink">
<g id="graph0" class="graph" transform="scale(1 1) rotate(0) translate(4 280)">
<title>dependencies</title>
<polygon fill="#ffffff" stroke="transparent" points="-4,4 -4,-280 520,-280 520,4 -4,4"/>
<text text-anchor="start" x="237.0091" y="-42.4" font-family="sans-serif" font-weight="bold" font-size="14.00" fill="#000000">Legend</text>
<polygon fill="#ffffb3" stroke="transparent" points="24,-10 24,-30 44,-30 44,-10 24,-10"/>
<text text-anchor="start" x="47.629" y="-15.4" font-family="sans-serif" font-size="14.00" fill="#000000"> &#160;Declarations</text>
<polygon fill="#8dd3c7" stroke="transparent" points="137,-10 137,-30 157,-30 157,-10 137,-10"/>
<text text-anchor="start" x="160.7251" y="-15.4" font-family="sans-serif" font-size="14.00" fill="#000000"> &#160;Module</text>
<polygon fill="#80b1d3" stroke="transparent" points="223,-10 223,-30 243,-30 243,-10 223,-10"/>
<text text-anchor="start" x="246.7812" y="-15.4" font-family="sans-serif" font-size="14.00" fill="#000000"> &#160;Bootstrap</text>
<polygon fill="#fdb462" stroke="transparent" points="320,-10 320,-30 340,-30 340,-10 320,-10"/>
<text text-anchor="start" x="343.6732" y="-15.4" font-family="sans-serif" font-size="14.00" fill="#000000"> &#160;Providers</text>
<polygon fill="#fb8072" stroke="transparent" points="416,-10 416,-30 436,-30 436,-10 416,-10"/>
<text text-anchor="start" x="439.7258" y="-15.4" font-family="sans-serif" font-size="14.00" fill="#000000"> &#160;Exports</text>
<g id="clust1" class="cluster">
<title>cluster_AppModule</title>
<polygon fill="none" stroke="#000000" stroke-dasharray="1,5" points="8,-70 8,-268 508,-268 508,-70 8,-70"/>
</g>
<g id="clust2" class="cluster">
<title>cluster_AppModule_declarations</title>
<polygon fill="none" stroke="#000000" points="164,-78 164,-130 500,-130 500,-78 164,-78"/>
</g>
<g id="clust8" class="cluster">
<title>cluster_AppModule_bootstrap</title>
<polygon fill="none" stroke="#000000" points="220,-208 220,-260 344,-260 344,-208 220,-208"/>
</g>
<g id="clust9" class="cluster">
<title>cluster_AppModule_providers</title>
<polygon fill="none" stroke="#000000" points="16,-78 16,-130 156,-130 156,-78 16,-78"/>
</g>
<!-- AppComponent -->
<g id="node1" class="node">
<title>AppComponent</title>
<polygon fill="#ffffb3" stroke="#000000" points="491.9399,-122 386.0601,-122 386.0601,-86 491.9399,-86 491.9399,-122"/>
<text text-anchor="middle" x="439" y="-99.8" font-family="Times,serif" font-size="14.00" fill="#000000">AppComponent</text>
</g>
<!-- AppModule -->
<g id="node4" class="node">
<title>AppModule</title>
<polygon fill="#8dd3c7" stroke="#000000" points="323.6571,-187 320.6571,-191 299.6571,-191 296.6571,-187 240.3429,-187 240.3429,-151 323.6571,-151 323.6571,-187"/>
<text text-anchor="middle" x="282" y="-164.8" font-family="Times,serif" font-size="14.00" fill="#000000">AppModule</text>
</g>
<!-- AppComponent&#45;&gt;AppModule -->
<g id="edge1" class="edge">
<title>AppComponent&#45;&gt;AppModule</title>
<path fill="none" stroke="#000000" d="M439,-122.1061C439,-141.3391 439,-169 439,-169 439,-169 333.6609,-169 333.6609,-169"/>
<polygon fill="#000000" stroke="#000000" points="333.661,-165.5001 323.6609,-169 333.6609,-172.5001 333.661,-165.5001"/>
</g>
<!-- OrderBy -->
<g id="node2" class="node">
<title>OrderBy</title>
<polygon fill="#ffffb3" stroke="#000000" points="368.479,-122 303.521,-122 303.521,-86 368.479,-86 368.479,-122"/>
<text text-anchor="middle" x="336" y="-99.8" font-family="Times,serif" font-size="14.00" fill="#000000">OrderBy</text>
</g>
<!-- OrderBy&#45;&gt;AppModule -->
<g id="edge2" class="edge">
<title>OrderBy&#45;&gt;AppModule</title>
<path fill="none" stroke="#000000" d="M313.6694,-122.1061C313.6694,-122.1061 313.6694,-140.991 313.6694,-140.991"/>
<polygon fill="#000000" stroke="#000000" points="310.1694,-140.9909 313.6694,-150.991 317.1694,-140.991 310.1694,-140.9909"/>
</g>
<!-- UsersComponent -->
<g id="node3" class="node">
<title>UsersComponent</title>
<polygon fill="#ffffb3" stroke="#000000" points="285.7036,-122 172.2964,-122 172.2964,-86 285.7036,-86 285.7036,-122"/>
<text text-anchor="middle" x="229" y="-99.8" font-family="Times,serif" font-size="14.00" fill="#000000">UsersComponent</text>
</g>
<!-- UsersComponent&#45;&gt;AppModule -->
<g id="edge3" class="edge">
<title>UsersComponent&#45;&gt;AppModule</title>
<path fill="none" stroke="#000000" d="M262.8868,-122.1061C262.8868,-122.1061 262.8868,-140.991 262.8868,-140.991"/>
<polygon fill="#000000" stroke="#000000" points="259.3868,-140.9909 262.8868,-150.991 266.3868,-140.991 259.3868,-140.9909"/>
</g>
<!-- AppComponent  -->
<g id="node5" class="node">
<title>AppComponent </title>
<polygon fill="#80b1d3" stroke="#000000" points="336.439,-252 227.561,-252 227.561,-216 336.439,-216 336.439,-252"/>
<text text-anchor="middle" x="282" y="-229.8" font-family="Times,serif" font-size="14.00" fill="#000000">AppComponent </text>
</g>
<!-- AppModule&#45;&gt;AppComponent  -->
<g id="edge4" class="edge">
<title>AppModule&#45;&gt;AppComponent </title>
<path fill="none" stroke="#000000" stroke-dasharray="1,5" d="M282,-187.1061C282,-187.1061 282,-205.991 282,-205.991"/>
<polygon fill="#000000" stroke="#000000" points="278.5001,-205.9909 282,-215.991 285.5001,-205.991 278.5001,-205.9909"/>
</g>
<!-- UsersService -->
<g id="node6" class="node">
<title>UsersService</title>
<ellipse fill="#fdb462" stroke="#000000" cx="86" cy="-104" rx="61.9519" ry="18"/>
<text text-anchor="middle" x="86" y="-99.8" font-family="Times,serif" font-size="14.00" fill="#000000">UsersService</text>
</g>
<!-- UsersService&#45;&gt;AppModule -->
<g id="edge5" class="edge">
<title>UsersService&#45;&gt;AppModule</title>
<path fill="none" stroke="#000000" d="M86,-122.1061C86,-141.3391 86,-169 86,-169 86,-169 229.9531,-169 229.9531,-169"/>
<polygon fill="#000000" stroke="#000000" points="229.9531,-172.5001 239.9531,-169 229.953,-165.5001 229.9531,-172.5001"/>
</g>
</g>
</svg>
